<svg xmlns="http://www.w3.org/2000/svg" viewBox="0 0 199.67 223.77"><g id="afcf726b-3cf6-44d5-a2ad-27bb2466c2dc" data-name="Layer 2"><g id="b1e6943f-4972-44c4-8f43-98c724e8fae1" data-name="Layer 1"><g id="b434f3a6-eba7-44d4-a36f-abea011817b9" data-name="zglw7X"><path d="M0,103.74Q0,62.69,0,21.61C0,8.27,8.29,0,21.66,0H138.24c10.77,0,17.53,4.87,21,15A3.07,3.07,0,0,0,161,16.63c9.62,3.18,14.83,10.24,14.84,20.35q0,38,0,75.89a3.28,3.28,0,0,0,2.06,3.39c14.1,7.58,21.79,19.47,21.83,35.46s-7.65,28.06-21.84,35.69a3.29,3.29,0,0,0-2.05,3.4c0,5.57.31,11.21-.48,16.68a19.16,19.16,0,0,1-19,16.23q-60.4.1-120.82,0a19.56,19.56,0,0,1-18.51-14.17,3.27,3.27,0,0,0-2.43-2.65A19.65,19.65,0,0,1,0,187.37Q0,145.55,0,103.74Zm167.66,8.77c.06-.76.14-1.33.14-1.9q0-37.19,0-74.39C167.78,29,162.56,24,155.18,24Q95.89,24,36.6,24C29.11,24,24,29.05,24,36.5q0,83.37,0,166.75c0,7.44,5.11,12.47,12.61,12.5,7.32,0,14.65,0,22,0h96.61c6.48,0,11.68-3.91,12.36-10,.53-4.74.11-9.6.11-14.62a40.92,40.92,0,0,1-22.85-2.25,39.46,39.46,0,0,1-18-14.52,39.88,39.88,0,0,1,4.29-50.24C141.16,113.85,153.51,110.33,167.67,112.51Zm-7.86,7.38a32,32,0,1,0,32,31.87A32,32,0,0,0,159.81,119.89ZM150.66,16c0-.4.12-.57.07-.71a6.07,6.07,0,0,0-.5-1.14C147.68,9.92,143.91,8,139,8Q80.33,8,21.65,8C12.67,8,8,12.69,8,21.74V186c0,.83,0,1.67,0,2.5.32,4.84,3.72,9.22,8,10.09v-161C16,24.25,24.29,16,37.66,16h113Z"/><path d="M36,63.69c0-5.08,0-10.16,0-15.23C36,41.13,41.07,36,48.33,36q15.62-.06,31.21,0c7.18,0,12.33,5.1,12.36,12.23q.07,15.73,0,31.46c0,7.13-5.17,12.21-12.35,12.24q-15.61.06-31.21,0C41.06,91.87,36,86.74,36,79.41,35.94,74.17,36,68.93,36,63.69Zm8,.25c0,5.07,0,10.15,0,15.22,0,3.26,1.48,4.73,4.74,4.73q15.22,0,30.45,0c3.25,0,4.72-1.48,4.73-4.74q0-15.23,0-30.45c0-3.26-1.48-4.71-4.74-4.72q-15.22,0-30.45,0C45.44,44,44,45.44,44,48.71,44,53.79,44,58.86,44,63.94Z"/><path d="M67.94,179.8c6.49,0,13,0,19.47,0,7.08,0,12.43,5.14,12.49,11.86s-5.31,12.1-12.49,12.11q-19.48.06-38.95,0c-7.19,0-12.54-5.26-12.49-12.11s5.41-11.83,12.49-11.86C55,179.77,61.44,179.8,67.94,179.8Zm0,16c6.32,0,12.64,0,19,0,3.16,0,5-1.47,5-3.94s-1.81-4-4.94-4q-19,0-37.93,0c-3.17,0-5,1.45-5,3.94s1.81,4,4.94,4C55.25,195.79,61.57,195.78,67.89,195.78Z"/><path d="M79.64,115.88q-19,0-37.92,0a11.94,11.94,0,0,1-2.24-.06,4,4,0,0,1-.06-7.87,12,12,0,0,1,2.24-.07h76.58a16.65,16.65,0,0,1,2,0,3.92,3.92,0,0,1,3.6,4,3.87,3.87,0,0,1-3.55,3.86,12.86,12.86,0,0,1-2.24,0Q98.85,115.9,79.64,115.88Z"/><path d="M72.2,139.84h29.92a12.85,12.85,0,0,1,2.24.06,4,4,0,0,1,.09,7.87,12.89,12.89,0,0,1-2.49.08H41.86c-.5,0-1,0-1.49,0-2.7-.11-4.43-1.72-4.38-4.08s1.72-3.8,4.28-3.91c1,0,2,0,3,0Z"/><path d="M127.93,67.94c-7.64,0-15.29,0-22.93,0-3.29,0-5.17-1.55-5.09-4.12s1.88-3.87,5.08-3.87h45.87c3.14,0,5,1.5,5,4s-1.83,4-4.95,4C143.22,68,135.58,67.94,127.93,67.94Z"/><path d="M59.92,131.87c-6.31,0-12.63,0-18.94,0-3.17,0-5-1.46-5-4s1.79-4,4.91-4q19.07,0,38.13,0c3.09,0,4.93,1.58,4.87,4.07s-1.82,3.91-4.79,3.92C72.71,131.88,66.32,131.87,59.92,131.87Z"/><path d="M60,155.82c6.31,0,12.63,0,18.94,0,3.14,0,5,1.5,5,4s-1.82,4-5,4q-19.07,0-38.13,0c-3.07,0-4.91-1.62-4.83-4.12s1.83-3.86,4.82-3.87C47.21,155.81,53.6,155.82,60,155.82Z"/><path d="M119.89,83.92c-5.07,0-10.13,0-15.2,0-3,0-4.73-1.5-4.78-3.92s1.78-4.06,4.88-4.07q15.08,0,30.15,0c3.1,0,4.93,1.55,4.9,4s-1.85,4-5,4C129.85,83.93,124.87,83.92,119.89,83.92Z"/><path d="M116.14,44c3.74,0,7.47,0,11.21,0,2.74,0,4.47,1.6,4.5,3.94s-1.71,4-4.4,4q-11.58.06-23.16,0c-2.69,0-4.42-1.72-4.38-4.06S101.68,44,104.44,44C108.34,43.92,112.24,44,116.14,44Z"/><path d="M155.49,154.51c4.74-4.76,8.84-8.89,13-13,1.95-1.94,4-2.2,5.79-.84a3.86,3.86,0,0,1,.43,5.93q-7.94,8.13-16.07,16.07a3.73,3.73,0,0,1-5.6,0q-4.08-3.85-7.95-7.94a3.91,3.91,0,0,1-.11-5.61c1.56-1.66,3.92-1.69,5.81,0a27.42,27.42,0,0,1,2.46,2.48C154,152.42,154.63,153.38,155.49,154.51Z"/></g></g></g></svg>