<svg xmlns="http://www.w3.org/2000/svg" viewBox="0 0 232.82 232.5"><g id="b25479be-9ae6-4459-8a11-13253255e2a9" data-name="Layer 2"><g id="f071902d-cc7e-4ad3-a785-e00cb1974c94" data-name="Layer 1"><path d="M48.68,232.49q-10.89,0-21.77,0c-13.07,0-23.28-8-26-20.25a32.07,32.07,0,0,1-.67-7c0-28,0-58.33,0-92.83,0-16.22,11-27.13,27.24-27.13H77.84c16.09,0,26.92,10.82,27,26.9q0,16.37,0,32.71v28.19c0,10.72,0,21.79,0,32.68,0,13-8,23.26-20.27,26a30.27,30.27,0,0,1-6.46.66Q63.37,232.49,48.68,232.49Zm8.66-8.87c7.82,0,14.21.06,20.14.19H78a18.2,18.2,0,0,0,13.18-5.34,18.4,18.4,0,0,0,5-13.47c-.28-10.77-.22-21.73-.16-32.34q0-6.9,0-13.8V145q0-16.42,0-32.85c0-11.25-7-18.26-18.27-18.27H27.37C16,93.93,9,101,9,112.29q0,46.54,0,93.09c0,11.46,6.88,18.32,18.39,18.33h1.14c4.81,0,9.62,0,14.43-.05S52.53,223.62,57.34,223.62Zm97.79-76.41c-16.19,0-27.08-10.87-27.11-27q0-16.48,0-33V73.52q0-7.11,0-14.21c0-10.72,0-21.8,0-32.7.05-13,8.05-23.23,20.36-25.93a31,31,0,0,1,6.73-.62q14.12,0,28.24,0h22.17c16.2,0,27.09,10.9,27.11,27.07,0,30.88,0,62.2,0,93.08,0,16.16-10.91,27-27.1,27H155.13Zm26-138.43H155c-11.42,0-18.25,6.82-18.25,18.21q0,46.66,0,93.34c0,11.23,7,18.22,18.3,18.24H205.5c11.33,0,18.37-7.07,18.38-18.42q0-16.2,0-32.39V59.84q0-16.38,0-32.77c0-11.43-6.81-18.26-18.19-18.28ZM52.43,72.8c-8.81,0-17.68,0-26.39-.16C11.83,72.46,1.28,62.54.39,48.51a189.77,189.77,0,0,1,0-24.32C1.29,10.12,12.05.19,26.55,0c3.28,0,6.55,0,9.83,0l8.06,0h8.07l8.06,0h8.06c3.28,0,6.56,0,9.83.05,14.48.15,25.23,10.09,26.15,24.16a188,188,0,0,1,0,24.32c-.91,14-11.46,23.94-25.66,24.11C70.1,72.75,61.18,72.8,52.43,72.8ZM36.8,8.78c-3.41,0-6.82,0-10.24,0C16.1,8.86,9,15.92,9,26.36c0,6.56,0,13.27,0,20C9,56.82,16.09,63.89,26.54,63.92q12.92,0,25.82,0t26.07,0C88.89,63.89,96,56.83,96,46.36c0-5.71,0-11.8,0-19.72C96,15.84,89,8.84,78.2,8.8c-3.26,0-6.52,0-9.78,0H36.8ZM164.18,232.5c-3.28,0-6.57,0-9.85-.05-14.65-.17-25.41-10.32-26.18-24.69a216.49,216.49,0,0,1,0-23.35c.79-14.24,11.28-24.33,25.52-24.54,9.14-.13,18.21-.2,26.93-.2,9,0,17.86.07,26.46.21,14.19.24,24.65,10.36,25.43,24.63a208.84,208.84,0,0,1,0,23.34c-.83,14.34-11.62,24.46-26.26,24.6q-4.92,0-9.83.05l-8.06,0H172.23Zm16.14-64q-13,0-25.94,0c-10.45,0-17.53,7.1-17.6,17.58,0,5.74,0,11.82,0,19.72.05,10.79,7.06,17.79,17.86,17.83l10.05,0h41.59c10.45-.11,17.52-7.19,17.59-17.6,0-6.69,0-13.41,0-20-.08-10.48-7.15-17.54-17.6-17.57Z"/></g></g></svg>