<svg xmlns="http://www.w3.org/2000/svg" viewBox="0 0 215.73 215.72"><g id="f3174e88-329c-4d9e-a8a2-54bd71f8b07c" data-name="Layer 2"><g id="f03e61e6-00cd-4cb5-b666-a5fd1dad2d16" data-name="Layer 1"><path d="M107.89,163.69a5.77,5.77,0,0,1-2.61-.71c-13.81-7-28.54-14.33-46.38-23.19-2.18-1.09-3-2.37-3-4.72,0-17.57,0-35.87,0-54.4a4.57,4.57,0,0,1,3-4.7c17-8.44,32.11-16,46.16-23.11a5.5,5.5,0,0,1,5.63,0C125.36,60.26,140.89,68,156.83,76a4.71,4.71,0,0,1,3,4.94c-.05,6.4,0,12.9,0,19.19,0,2.59,0,5.19,0,7.78s0,5.21,0,7.81c0,6.2,0,12.61,0,18.93a5.05,5.05,0,0,1-3.21,5.32c-17,8.41-33.59,16.75-46.15,23.07A5.8,5.8,0,0,1,107.89,163.69ZM64.29,92l-.07.25a5.21,5.21,0,0,0-.28,1.65V99.5c0,9.79,0,19.91.07,29.87a7.35,7.35,0,0,0,4,5.95c7.91,4.05,16,8.08,23.81,12l4.07,2c.59.29,1.16.52,1.71.73l.75.3,5.52,2.26v-12.9c0-10.15,0-19.74-.08-29.54a7.17,7.17,0,0,0-3.9-5.79c-6.12-3.13-12.36-6.24-18.4-9.25l-16-7.94Zm82.44-2.74-.37.1a6.52,6.52,0,0,0-1.48.51l-4.63,2.3c-8.15,4.07-16.57,8.27-24.81,12.5a7.34,7.34,0,0,0-3.51,6.26c-.08,9.34-.07,18.84-.06,28v5.71c0,.51,0,1,.07,1.55l0,.55.23,4.34,4.31-.6h.14a4.74,4.74,0,0,0,1.77-.47l4.86-2.42c8.22-4.09,16.72-8.32,25-12.57,2.47-1.27,3.4-4.32,3.42-6.07.07-6.15.06-12.38.06-18.41V87.82ZM108.1,61.36a8.72,8.72,0,0,0-3.66.84c-5.63,2.73-11.31,5.57-16.8,8.32l-3.79,1.89L78.78,75l-9.8,5L82,86.48c7.91,4,15.39,7.71,23,11.42a6.11,6.11,0,0,0,2.7.59h0a8.23,8.23,0,0,0,3.53-.81c7.75-3.8,15.59-7.73,23.17-11.53l3.41-1.71a13.56,13.56,0,0,0,1.38-.83l.44-.29,4.74-3L140,76.82l-.22-.18a5.5,5.5,0,0,0-1.23-.86l-4.77-2.4c-7.5-3.77-15.26-7.67-22.94-11.42A6.24,6.24,0,0,0,108.1,61.36ZM83.89,48c-2.93,0-4-2.5-4-4.83,0-3.44,0-6.87,0-10.38V24H54.16c-3.11,0-6.22,0-9.33-.05h-.16A6.77,6.77,0,0,0,38,28.23,19.71,19.71,0,0,1,20,40h0A20,20,0,0,1,15.52.51,21,21,0,0,1,20,0,19.45,19.45,0,0,1,37.76,11.33,7.49,7.49,0,0,0,45.21,16h.1Q54.9,16,64.48,16l18.23,0c3.87,0,5.18,1.32,5.18,5.23q0,11,0,21.94c0,2.29-1,4.74-3.94,4.78ZM20,8A12,12,0,0,0,8,19.83,12,12,0,0,0,20,32h.11A12,12,0,0,0,20,8Zm0,207.7a20,20,0,0,1-4.38-39.48,20.77,20.77,0,0,1,4.36-.46,19.5,19.5,0,0,1,17.84,11.41,7.27,7.27,0,0,0,7.24,4.6h.15c6.57-.07,13.13-.08,20.4-.08h9.51a4.88,4.88,0,0,0,1.62-.29,1.39,1.39,0,0,1,.27-.09l2.89-.84v-7.64c0-3.47,0-6.92,0-10.37,0-2.26,1.06-4.69,4-4.69,2.43,0,4,1.82,4,4.65,0,6.64,0,13.76,0,22.42,0,3.46-1.4,4.87-4.81,4.87l-17.52,0q-10.32,0-20.64-.05a7,7,0,0,0-7,4.39A19.6,19.6,0,0,1,20,215.72Zm0-31.95a12.05,12.05,0,0,0-12,12,12,12,0,1,0,12.23-12ZM131.81,48c-3.67,0-4-3.81-4-5q0-11.08,0-22.18c0-3.4,1.42-4.79,4.87-4.79h17.34l20.82,0h0a6.81,6.81,0,0,0,6.85-4.22,19.71,19.71,0,0,1,18-11.8A20,20,0,0,1,215.4,23.35,19.77,19.77,0,0,1,196,39.92l-1,0c-7.94-.41-13.56-4.23-17.16-11.69A6.8,6.8,0,0,0,171.07,24H171q-7.07.06-14.12.05h-21v8.88c0,3.48,0,6.84,0,10.2,0,2.36-1.06,4.88-4,4.88ZM195.77,8a12,12,0,0,0-.1,23.94h0A12,12,0,0,0,196,8Zm0,207.69A19.52,19.52,0,0,1,178,204.45a7.66,7.66,0,0,0-7.61-4.76h-.13c-5.52,0-11.56.06-19,.06H132.85c-3.59,0-5-1.38-5-4.92q0-11.09,0-22.18c0-2.34,1.05-4.85,4-4.85s4,2.47,4,4.76c0,3.43,0,6.86,0,10.38v8.76h40.09l1-2.52a20.33,20.33,0,0,1,9.88-11.23,19.41,19.41,0,0,1,8.93-2.15,20,20,0,0,1,0,39.93Zm0-31.94a12.05,12.05,0,0,0-12,11.66,12,12,0,0,0,11.94,12.28,12,12,0,0,0,.25-23.94Z"/></g></g></svg>