<svg xmlns="http://www.w3.org/2000/svg" viewBox="0 0 232.64 231.8"><g id="b16ce7ec-a18a-4f5f-85bc-1333bcda4973" data-name="Layer 2"><g id="b51013a3-5a80-4fd4-b658-a6c416301f36" data-name="Layer 1"><path d="M116.33,231.8a8.4,8.4,0,0,1-3.78-1c-34-17.07-69.6-34.87-108.89-54.44a5.91,5.91,0,0,1-3.66-6c.05-36.4.05-73,0-108.85a5.92,5.92,0,0,1,3.66-6C41.39,36.7,78.11,18.35,112.78,1a7.13,7.13,0,0,1,7.11,0C158.38,20.26,194,38.06,228.75,55.36a6.25,6.25,0,0,1,3.88,6.38c-.06,13.38,0,27,0,40.13v14q0,7,0,14.11c0,13.05,0,26.54.06,39.82,0,3.37-1.14,5.26-4.12,6.75-33.44,16.62-68.9,34.35-108.41,54.19A8.4,8.4,0,0,1,116.33,231.8ZM145.2,106.35l-6.11,3.06c-5.36,2.69-10.42,5.22-15.57,7.69a4.5,4.5,0,0,0-2.87,4.69c0,23.93,0,48.26,0,71.78v22.56c0,.59,0,1.18.08,1.85,0,.32,0,.65.07,1l.08,1.47,2.26-1,1.43-.66L144.1,209c25.27-12.62,51.4-25.68,77.13-38.47,2.19-1.09,2.63-2.56,2.63-4.58q0-35,0-70V71.65c0-.59,0-1.18-.08-1.86,0-.34-.05-.7-.07-1.09l-.08-1.52-7.39,3.69c-5.4,2.7-10.49,5.25-15.7,7.78A4.21,4.21,0,0,0,197.83,83q.06,15,0,30.09,0,10.78,0,21.57c0,2.36-.37,4-2.27,5a4.15,4.15,0,0,1-2,.54,6.27,6.27,0,0,1-3.65-1.53c-3-2.21-6-4.34-9.2-6.59L176,128.71l-1.3,1.8c-.41.57-.77,1.06-1.11,1.56l-6.08,8.78q-6.26,9-12.53,18.08a5.33,5.33,0,0,1-4.19,2.58,4.12,4.12,0,0,1-2.51-.89c-1.41-1.07-1.69-2.53-1.68-4.54q0-17.6,0-35.19V105.63ZM8.93,68.67q0,.56-.06,1c0,.57-.07,1-.07,1.46V92.27c0,24.31,0,49.46-.05,74.19a4,4,0,0,0,2.65,4q36.36,18.13,72.7,36.31l23.66,11.82c.54.27,1.1.52,1.72.78l.91.39,1.32.58.09-1.43c0-.32,0-.61,0-.87,0-.53.07-1,.07-1.43V195.11c0-24.19,0-49.2,0-73.8a4,4,0,0,0-2.63-4.06Q77.87,101.56,46.43,85.82L28.14,76.68,16.38,70.82,9,67.15ZM187.81,85.25l-.47.15a6,6,0,0,0-.92.34l-4.71,2.35c-8,4-16.35,8.15-24.48,12.33a4.5,4.5,0,0,0-1.89,3.6c-.07,8.92-.06,18-.06,26.75v12.17l1.8-2.41.84-1.11c.43-.57.75-1,1.05-1.42l4.54-6.57q3.62-5.22,7.24-10.45c1.29-1.84,2.59-2.73,4-2.73a6.4,6.4,0,0,1,3.53,1.39c2,1.42,4,2.86,6.17,4.37l4.7,3.34V84.79ZM40.52,47.56a5.51,5.51,0,0,0-2.31.49c-5.35,2.56-10.73,5.27-15.94,7.88L18.1,58c-.39.2-.76.42-1.21.68l-.74.44L14.62,60l1.55.86.77.43c.45.26.83.48,1.22.67l8.18,4.1c28.81,14.4,58.6,29.3,87.93,43.88a4.53,4.53,0,0,0,2,.41h0a5.28,5.28,0,0,0,2.26-.47c5.31-2.54,10.66-5.23,15.83-7.82l4.06-2c.44-.22.86-.47,1.36-.76l.81-.48,1.53-.87-1.53-.86-.77-.44c-.45-.27-.83-.48-1.22-.68L130.75,92C101.82,77.57,71.9,62.6,42.44,48A4.41,4.41,0,0,0,40.52,47.56ZM83.09,26.25a5.26,5.26,0,0,0-2.27.48c-7.26,3.53-14.59,7.21-21.68,10.77l-4.68,2.34c-.48.24-.94.52-1.5.85l-.92.55-1.61.93,18.9,9.46,8.53,4.26c23.6,11.79,48,24,72,35.94a6.19,6.19,0,0,0,2.67.66,3,3,0,0,0,1.35-.28c7.68-3.73,15.18-7.49,23.11-11.47l7.92-4-1.59-.93-.67-.41c-.38-.23-.67-.41-1-.56l-8.08-4c-29-14.5-59-29.5-88.54-44.17A4.6,4.6,0,0,0,83.09,26.25ZM116.15,9.93a10.35,10.35,0,0,0-5.34,1.64c-3.54,2.09-7.21,3.86-11.1,5.73q-2.5,1.2-5,2.46L93,20.59l1.6.93.64.38c.37.23.65.39.94.54l6.93,3.46C132.55,40.62,163,55.84,192.94,70.74a4.48,4.48,0,0,0,1.93.4h0A5,5,0,0,0,197,70.7c4.87-2.33,9.77-4.8,14.52-7.18l3.35-1.69a8.23,8.23,0,0,0,1.07-.67l.6-.41,1.42-.93-2.63-1.39c-.72-.38-1.35-.72-2-1l-22-11C168.49,35,144.89,23.23,121.74,11.51A12.27,12.27,0,0,0,116.15,9.93Z"/></g></g></svg>