<svg xmlns="http://www.w3.org/2000/svg" viewBox="0 0 255.68 255.77"><g id="a1a9a72c-7f41-40b9-bb1c-a3a41f4a9e86" data-name="Layer 2"><g id="ad77ce77-b299-4a81-8143-5f001c99acd3" data-name="Layer 1"><g id="e3179dd3-1ea8-4f5f-8a3f-1a1d6064c093" data-name="dP0wf4"><path d="M221.61,123.73H34.07V127c0,39.35-.11,78.71.09,118.06,0,7.56-4.58,11-10.63,10.64-4.8-.31-9.64,0-14.47-.07-5.51,0-9-3.55-9-9.07Q0,151.87,0,57.14C0,50.91,3.32,46.31,9.3,44q53.48-20.26,107-40.53c12.1-4.59,10.72-4.77,23.26,0Q192.73,23.74,246,43.92c6.76,2.57,9.7,6.86,9.7,14q0,93.85,0,187.7c0,6.74-3.22,10-9.88,10-4.83,0-9.65,0-14.48,0-6.41,0-9.69-3.26-9.69-9.66q0-59.41,0-118.81ZM25.53,247v-3.29q0-82.87,0-165.74c0-8.74,5.27-14.06,13.93-14.06H216.21a17.46,17.46,0,0,1,3.47.24c6.57,1.32,10.46,6.46,10.46,13.81q0,82.86,0,165.74V247h17V58.14c0-3.83-.74-4.92-4.37-6.3q-56-21.27-112.06-42.54a7.61,7.61,0,0,0-5.76,0Q69.07,30.59,13.13,51.77c-3.94,1.49-4.61,2.43-4.61,6.62V247Zm196-132.12c.05-.72.1-1.12.1-1.53,0-11.89,0-23.79,0-35.68,0-3.8-1.62-5.24-5.66-5.24H39.73c-4.23,0-5.66,1.44-5.66,5.74q0,17.22,0,34.44c0,.72.09,1.44.14,2.27Z"/><path d="M166.23,234.46H89.46c0,2.11-.14,4.16,0,6.19.8,9.8-6.41,15.76-14.94,15.06-3.39-.27-6.82,0-10.23-.05-7.41-.06-12.74-5.11-13.19-12.52-.09-1.57-.07-3.16,0-4.74.09-2.81.14-5.37-2.38-7.61-1.24-1.11-1.7-3.6-1.74-5.48-.18-8.57-.07-17.14-.08-25.71a17.05,17.05,0,0,1,8.51-15.38c.42-.26.82-.56,1.22-.85,0,0,.06-.15.14-.38-.73-.27-1.47-.53-2.19-.84a12.73,12.73,0,0,1,4.61-24.43c5.42-.24,10.72-.17,14.8,4.92,1.74-4.64,3.48-8.83,4.9-13.12,2.07-6.23,6.31-9.26,12.74-10.28a229.17,229.17,0,0,1,58.2-1.82c5.46.52,10.88,1.42,16.3,2.27,5.06.8,8.35,3.84,10.14,8.56s3.49,9.29,5.4,14.37c3.87-4.78,8.9-5.14,14.19-4.94,6.52.24,11.62,4.36,12.76,10.52s-2.29,11.88-8.35,14.25l-1.61.64c1.05.71,1.93,1.28,2.78,1.9a16.4,16.4,0,0,1,7.28,13.53c.13,9.07,0,18.14.06,27.21a9.23,9.23,0,0,1-2.79,6.45,5.74,5.74,0,0,0-1.35,3.15c-.24,3.14,0,6.34-.34,9.46a12.41,12.41,0,0,1-12.11,10.84c-4.58.12-9.16.13-13.73,0a12.62,12.62,0,0,1-12.22-12.4C166.17,240.41,166.23,237.58,166.23,234.46Zm34-8.77c0-8.85,0-17.41,0-26a9.07,9.07,0,0,0-4.76-8.44c-3.73-2.19-7.37-4.54-11.16-6.6a10.61,10.61,0,0,0-4.85-1.37q-45.56-.12-91.1-.06c-4.91,0-10.12-1-14.64.34-4.87,1.43-9.09,5.06-13.6,7.71a9,9,0,0,0-4.75,8.43c.06,7.91,0,15.81,0,23.71,0,.72.09,1.44.14,2.24ZM176.9,174.63c-.23-.75-.35-1.22-.52-1.67-2.64-7.08-5.36-14.14-7.92-21.25-.87-2.44-2.49-3.48-4.94-3.88a218.32,218.32,0,0,0-71.28,0,6,6,0,0,0-5.19,4.28c-2.45,6.8-5,13.54-7.58,20.31-.25.68-.42,1.38-.67,2.24Zm-2.1,59.84c0,3.09-.16,6.07,0,9a3.73,3.73,0,0,0,3.83,3.58c4.48.15,9,.14,13.46,0a3.5,3.5,0,0,0,3.62-3.19c.23-3.1.06-6.23.06-9.4Zm-115,0c0,3.11-.16,6.08.06,9,.16,2.31,1.84,3.54,4.08,3.59,4.23.11,8.47.08,12.7,0,2.15,0,3.9-1.18,4.12-3.28a91.16,91.16,0,0,0,.08-9.36Zm8.14-59.77c.81-5.94,0-9.05-6.85-8.48-.41,0-.83,0-1.24,0-2.61.13-4.34,1.75-4.39,4.11a4.21,4.21,0,0,0,4.21,4.33C62.37,174.81,65.1,174.71,67.92,174.71Zm119.73,0c3,0,5.93.16,8.79-.05a4.16,4.16,0,0,0,3.69-5.18c-.63-2.54-2.34-3.27-7.44-3.21-3.06,0-4.64,1-5,3.38A35.26,35.26,0,0,0,187.65,174.68Z"/><path d="M127.84,89.47H49.21c-.83,0-1.67,0-2.5,0a4.24,4.24,0,0,1-4.1-4.2A4.33,4.33,0,0,1,46.45,81a16.72,16.72,0,0,1,2.24-.06H207a18.88,18.88,0,0,1,2,0,4.35,4.35,0,0,1,4.11,4.24,4.3,4.3,0,0,1-4.34,4.24c-.75,0-1.5,0-2.25,0Z"/><path d="M127.84,106.51H49.46c-.92,0-1.84,0-2.75,0a4.21,4.21,0,0,1-.5-8.37A14.68,14.68,0,0,1,49,98H206.72a13.23,13.23,0,0,1,3.21.27,4,4,0,0,1,3.1,4.27,4.09,4.09,0,0,1-3.81,3.93c-.91.09-1.83.06-2.74.06Z"/><path d="M127.89,200.27H78.75a22.94,22.94,0,0,1-2.49-.05,4.23,4.23,0,0,1-.23-8.4,12.09,12.09,0,0,1,2-.07h99.51a11.89,11.89,0,0,1,2.24.1,4.23,4.23,0,0,1-.26,8.36,18.89,18.89,0,0,1-2.5.06Z"/></g></g></g></svg>