<svg xmlns="http://www.w3.org/2000/svg" viewBox="0 0 200.21 248.13"><g id="e6410e7b-5bcb-40ae-ba9c-d44e68c948e7" data-name="Layer 2"><g id="ab511528-1ac3-4b58-855a-a7d1c124f0ef" data-name="Layer 1"><path d="M100.14,248.12a6.24,6.24,0,0,1-2.56-.58c-30.07-13.47-53.47-30.41-71.53-51.8-14.14-16.74-22.31-34.3-25-53.68a115.46,115.46,0,0,1-1-15.53c0-12.68,0-25.56,0-38,0-12.73,0-25.9,0-38.85C0,45,.89,43.23,6.05,42.4,36,37.56,64.72,25.15,91.44,5.51c1.17-.86,2.31-1.75,3.45-2.65L96.6,1.54A5.81,5.81,0,0,1,100.05,0a6.83,6.83,0,0,1,3.69,1.54c2.41,1.65,4.8,3.33,7.19,5,6.57,4.61,13.36,9.37,20.42,13.44A180.82,180.82,0,0,0,196.2,42.75c2.62.38,3.91,2,3.94,5,0,4.45,0,9,0,13.37v30.8q0,5.28,0,10.58c0,7.66-.06,15.58.06,23.38.35,22.55-6.58,43.71-20.6,62.91C166.46,206.73,149,222,126.12,235.4c-5.18,3-10.69,5.77-16,8.41-2.39,1.18-4.79,2.37-7.16,3.59A6.08,6.08,0,0,1,100.14,248.12Zm0-237.34A5.14,5.14,0,0,0,97,12.09,208.18,208.18,0,0,1,21.22,48.35c-2.6.64-5.29,1.21-7.89,1.75l-3.75.8-.75.17L8.76,52.3c0,.33,0,.62,0,.91q0,9.81,0,19.63c0,19.09,0,38.83.12,58.25a76.82,76.82,0,0,0,1.79,15C14.3,164,23.41,180.37,38.47,196.29,53.36,212,72,225.39,95.42,237.1a11.08,11.08,0,0,0,4.93,1.37h0A8.1,8.1,0,0,0,104.9,237a25.07,25.07,0,0,1,3.3-1.73c.73-.34,1.46-.68,2.16-1.06,24.75-13.14,43.72-28,58-45.51,16-19.59,23.61-40.58,23.19-64.16-.28-16.12-.21-32.51-.15-48.36q0-10.64.06-21.26V51.05l-1.58-.38c-.48-.12-.87-.22-1.26-.29-30.21-5.66-59-18.55-85.44-38.32A5.18,5.18,0,0,0,100.11,10.78Zm0,202A4.35,4.35,0,0,1,98,212.2c-22.06-12-37.77-24.57-49.45-39.44C37.05,158.14,31.64,142.59,32,125.2c.23-11.64.18-23.47.12-34.92,0-5.25,0-10.51,0-15.76,0-4.21.64-5.09,4.51-6.25A238.67,238.67,0,0,0,96.87,40.58a5.37,5.37,0,0,1,6.54,0,237.41,237.41,0,0,0,60.53,27.76c3.54,1.06,4.26,2.06,4.27,5.94q0,10.44,0,20.86v7.59l-.09,1c0,2.79,0,5.57,0,8.36,0,6.09.07,12.39-.07,18.57-.3,13.82-5.13,26.88-14.75,39.93-10.17,13.79-24,25.66-43.51,37.35-1.82,1.1-3.72,2.14-5.55,3.16l-1.8,1A4.91,4.91,0,0,1,100.09,212.78Zm.16-163.39a4.87,4.87,0,0,0-2.32.76l-.12.06c-2.78,1.45-5.56,2.92-8.33,4.38-7.94,4.2-16.16,8.54-24.4,12.41-5.22,2.45-10.56,4.39-16.21,6.44-2.48.9-5,1.83-7.55,2.8l-.65.24v3.21q0,6.91,0,13.84c0,10.42.1,21.2-.1,31.8-.26,13.64,3.54,25.93,11.61,37.55C62.68,178,77,190.2,98.56,202.56a2.81,2.81,0,0,0,1.42.33,4.32,4.32,0,0,0,2-.5c16.89-9.64,29.48-19.57,39.62-31.25,12.72-14.65,18.61-30.26,18-47.73-.35-10.1-.27-20.4-.18-30.36,0-4.51.08-9,.08-13.51V76.25l-.61-.26-.47-.2a8.17,8.17,0,0,0-.76-.31A245.5,245.5,0,0,1,102.16,50,3.55,3.55,0,0,0,100.25,49.39Zm39,43.54a4.9,4.9,0,0,0-6.38-.32,16.29,16.29,0,0,0-1.56,1.46l-3,3q-18.8,18.81-37.59,37.63a10.05,10.05,0,0,0-1.12,1.49c-.26.39-.55.82-.91,1.33l-.41.56-.4-.55c-.39-.53-.69-1-1-1.36a10.77,10.77,0,0,0-1-1.37l-3.16-3.17c-4.6-4.65-9.36-9.45-14.17-14.05a8.38,8.38,0,0,0-4.44-2.12c-1.77-.22-3.28.85-4.09,2.84a4.77,4.77,0,0,0,1.32,5.58L83.55,146.1c1.9,1.89,3.34,2.73,4.69,2.73S91,148,93,146.07q22.49-22.48,45-45l.25-.25a13.3,13.3,0,0,0,1.41-1.52A4.81,4.81,0,0,0,139.24,92.93Z"/></g></g></svg>